{"title":"Cop Car (Coche Policial) 2015 [m720p][Spanish,English]","uid":12844909,"size":2475181666,"categoryP":"video","categoryS":"hd___movies","magnet":"?xt=urn:btih:6da225ad76d48ed05d9d726f6685aa4740fac443&amp;dn=Cop+Car+%28Coche+Policial%29+2015+%5Bm720p%5D%5BSpanish%2CEnglish%5D&amp;tr=udp%3A%2F%2Ftracker.leechers-paradise.org%3A6969&amp;tr=udp%3A%2F%2Fzer0day.ch%3A1337&amp;tr=udp%3A%2F%2Fopen.demonii.com%3A1337&amp;tr=udp%3A%2F%2Ftracker.coppersurfer.tk%3A6969&amp;tr=udp%3A%2F%2Fexodus.desync.com%3A6969","seeders":0,"leechers":1,"uploader":"buker10","files":2,"time":1448544370,"description":"General\r\nComplete name                            : Cop Car (Coche Policial)\r\nFormat                                   : Matroska\r\nFormat version                           : Version 2\r\nFile size                                : 2.30 GiB\r\nDuration                                 : 1h 27mn\r\nOverall bit rate                         : 3 739 Kbps\r\nMovie name                               : Coche Policial - BukerMovies.jimdo.com\r\nEncoded date                             : UTC 2015-11-25 11:45:55\r\n\r\nVideo\r\nID                                       : 1\r\nFormat                                   : AVC\r\nFormat/Info                              : Advanced Video Codec\r\nFormat profile                           :   \r\nFormat settings, CABAC                   : Yes\r\nFormat settings, ReFrames                : 4 frames\r\nMuxing mode                              : Header stripping\r\nCodec ID                                 : V_MPEG4/ISO/AVC\r\nDuration                                 : 1h 27mn\r\nBit rate                                 : 2 843 Kbps\r\nWidth                                    : 1 280 pixels\r\nHeight                                   : 534 pixels\r\nDisplay aspect ratio                     : 2.40:1\r\nFrame rate                               : 23.976 fps\r\nColor space                              : YUV\r\nChroma subsampling                       : 4:2:0\r\nBit depth                                : 8 bits\r\nScan type                                : Progressive\r\nBits/(Pixel*Frame)                       : 0.173\r\nStream size                              : 1.70 GiB (74%)\r\n\r\nAudio #1\r\nID                                       : 2\r\nFormat                                   : AC-3\r\nFormat/Info                              : Audio Coding 3\r\nMode extension                           : CM (complete main)\r\nFormat settings, Endianness              : Big\r\nMuxing mode                              : Header stripping\r\nCodec ID                                 : A_AC3\r\nDuration                                 : 1h 27mn\r\nBit rate mode                            : Constant\r\nBit rate                                 : 448 Kbps\r\nChannel(s)                               : 6 channels\r\nChannel positions                        : Front: L C R, Side: L R, LFE\r\nSampling rate                            : 48.0 KHz\r\nBit depth                                : 16 bits\r\nCompression mode                         : Lossy\r\nDelay relative to video                  : -83ms\r\nStream size                              : 282 MiB (12%)\r\nTitle                                    : Spanish\r\nLanguage                                 : Spanish\r\nDefault                                  : Yes\r\nForced                                   : No\r\n\r\nAudio #2\r\nID                                       : 3\r\nFormat                                   : AC-3\r\nFormat/Info                              : Audio Coding 3\r\nMode extension                           : CM (complete main)\r\nFormat settings, Endianness              : Big\r\nMuxing mode                              : Header stripping\r\nCodec ID                                 : A_AC3\r\nDuration                                 : 1h 27mn\r\nBit rate mode                            : Constant\r\nBit rate                                 : 448 Kbps\r\nChannel(s)                               : 6 channels\r\nChannel positions                        : Front: L C R, Side: L R, LFE\r\nSampling rate                            : 48.0 KHz\r\nBit depth                                : 16 bits\r\nCompression mode                         : Lossy\r\nDelay relative to video                  : -83ms\r\nStream size                              : 282 MiB (12%)\r\nTitle                                    : English\r\nLanguage                                 : English\r\nDefault                                  : No\r\nForced                                   : No\r\n\r\nText #1\r\nID                                       : 4\r\nFormat                                   : UTF-8\r\nCodec ID                                 : S_TEXT/UTF8\r\nCodec ID/Info                            : UTF-8 Plain Text\r\nTitle                                    : Forzados Spa\r\nLanguage                                 : Spanish\r\nDefault                                  : Yes\r\nForced                                   : No\r\n\r\nText #2\r\nID                                       : 5\r\nFormat                                   : UTF-8\r\nCodec ID                                 : S_TEXT/UTF8\r\nCodec ID/Info                            : UTF-8 Plain Text\r\nTitle                                    : Spanish\r\nLanguage                                 : Spanish\r\nDefault                                  : No\r\nForced                                   : No\r\n\r\nText #3\r\nID                                       : 6\r\nFormat                                   : UTF-8\r\nCodec ID                                 : S_TEXT/UTF8\r\nCodec ID/Info                            : UTF-8 Plain Text\r\nTitle                                    : English\r\nLanguage                                 : English\r\nDefault                                  : No\r\nForced                                   : No\r\n\r\nText #4\r\nID                                       : 7\r\nFormat                                   : UTF-8\r\nCodec ID                                 : S_TEXT/UTF8\r\nCodec ID/Info                            : UTF-8 Plain Text\r\nTitle                                    : BukerMovies\r\nLanguage                                 : Spanish\r\nDefault                                  : No\r\nForced                                   : No","torrent":{"xt":"urn:btih:6da225ad76d48ed05d9d726f6685aa4740fac443","amp;dn":"Cop+Car+%28Coche+Policial%29+2015+%5Bm720p%5D%5BSpanish%2CEnglish%5D","amp;tr":["udp%3A%2F%2Ftracker.leechers-paradise.org%3A6969","udp%3A%2F%2Fzer0day.ch%3A1337","udp%3A%2F%2Fopen.demonii.com%3A1337","udp%3A%2F%2Ftracker.coppersurfer.tk%3A6969","udp%3A%2F%2Fexodus.desync.com%3A6969"],"infoHash":"6da225ad76d48ed05d9d726f6685aa4740fac443","infoHashBuffer":{"type":"Buffer","data":[109,162,37,173,118,212,142,208,93,157,114,111,102,133,170,71,64,250,196,67]},"announce":[],"urlList":[]}}